<svg width="120" height="38" viewBox="0 0 120 38" version="1.1" xmlns="http://www.w3.org/2000/svg" xmlns:xlink="http://www.w3.org/1999/xlink">
<title>RxPACE_logo</title>
<desc>Created using Figma</desc>
<g id="Canvas" transform="translate(13863 558)">
<g id="RxPACE_logo">
<g id="running lrg">
<g id="logo text">
<g id="Vector">
<use xlink:href="#path0_fill" transform="translate(-13817.2 -545.486)" fill="#CC0000"/>
</g>
<g id="Vector">
<use xlink:href="#path1_fill" transform="translate(-13810.3 -532.805)" fill="#CC0000"/>
</g>
</g>
<g id="Group">
<g id="Vector">
<use xlink:href="#path2_fill" transform="translate(-13837.3 -558)" fill="#CC0000"/>
</g>
<g id="Vector">
<use xlink:href="#path3_fill" transform="translate(-13863 -552.267)" fill="#CC0000"/>
</g>
</g>
</g>
</g>
</g>
<defs>
<path id="path0_fill" fill-rule="evenodd" d="M 31.9152 5.09848C 31.9152 6.78654 31.3392 8.08489 30.1872 8.99351C 29.0353 9.90222 27.3871 10.3566 25.2428 10.3566L 23.281 10.3566L 23.281 16.9148L 21.3421 16.9148L 21.3421 0.23952L 25.6648 0.23952C 29.8317 0.23952 31.9152 1.85917 31.9152 5.09848ZM 23.281 1.91625L 23.281 8.69123L 25.0261 8.69123C 26.7446 8.69123 27.9878 8.41372 28.7558 7.85869C 29.5238 7.30357 29.9078 6.41391 29.9078 5.18968C 29.9078 4.08714 29.5466 3.26591 28.8242 2.726C 28.1019 2.18617 26.9765 1.91625 25.448 1.91625L 23.281 1.91625ZM 47.8948 16.9148L 45.8873 16.9148L 43.8115 11.6112L 37.1277 11.6112L 35.0747 16.9148L 33.1128 16.9148L 39.7054 0.17112L 41.3364 0.17112L 47.8948 16.9148ZM 37.8121 9.86602L 43.2069 9.86602L 41.268 4.69925C 41.0171 4.04534 40.7585 3.24311 40.4923 2.29256C 40.3251 3.02255 40.0855 3.82479 39.7738 4.69925L 37.8121 9.86602ZM 57.3274 1.73373C 55.4948 1.73373 54.0482 2.34393 52.9875 3.56431C 51.9267 4.78477 51.3963 6.45575 51.3963 8.57724C 51.3963 10.7595 51.9077 12.4457 52.9304 13.6356C 53.9532 14.8257 55.4112 15.4207 57.3046 15.4207C 58.468 15.4207 59.7949 15.2116 61.2852 14.7934L 61.2852 16.4929C 60.1294 16.9263 58.7037 17.143 57.0081 17.143C 54.552 17.143 52.6567 16.3978 51.3222 14.9075C 49.9877 13.4171 49.3205 11.2994 49.3205 8.55444C 49.3205 6.8359 49.6418 5.33032 50.2843 4.0377C 50.9268 2.745 51.8545 1.74889 53.0673 1.04938C 54.2801 0.349794 55.7077 -4.68743e-07 57.3502 -4.68743e-07C 59.0991 -4.68743e-07 60.6275 0.319356 61.9353 0.958067L 61.1142 2.6234C 59.8519 2.03029 58.5896 1.73373 57.3274 1.73373ZM 74.2194 15.1812L 74.2194 16.9148L 64.9236 16.9148L 64.9236 0.23952L 74.2194 0.23952L 74.2194 1.96185L 66.8627 1.96185L 66.8627 7.33393L 73.7746 7.33393L 73.7746 9.04487L 66.8627 9.04487L 66.8627 15.1812L 74.2194 15.1812ZM 5.41781 9.98014L 1.93905 9.98014L 1.93905 16.9148L 2.63668e-07 16.9148L 2.63668e-07 0.23952L 4.57385 0.23952C 6.61927 0.23952 8.13052 0.631112 9.10763 1.4143C 10.0847 2.19757 10.5733 3.37619 10.5733 4.95017C 10.5733 7.15526 9.45551 8.64564 7.21994 9.42131L 12.2245 16.893L 10.1504 16.8859L 5.41781 9.98014ZM 1.93905 1.93905L 1.93905 8.31492L 4.59665 8.31492C 5.96535 8.31492 6.96906 8.04309 7.60777 7.49942C 8.24648 6.95574 8.56584 6.14019 8.56584 5.05277C 8.56584 3.95022 8.24076 3.15563 7.59061 2.669C 6.94046 2.18237 5.89684 1.93905 4.45974 1.93905L 1.93905 1.93905Z"/>
<path id="path1_fill" d="M 3.10542e-06 12.5267L 4.57374 6.12808L 0.332393 3.16402e-06L 2.45229 3.16402e-06L 5.68 4.81637L 8.96495 0.0259232L 11.0978 0.0259232L 6.75218 6.12808L 11.3259 12.5267L 9.18167 12.5267L 5.68 7.46257L 2.14425 12.5267L 3.10542e-06 12.5267Z"/>
<path id="path2_fill" d="M 3.32083 6.63651C 5.15164 6.63651 6.63651 5.14661 6.63651 3.31567C 6.63651 1.48474 5.15164 -2.87105e-06 3.32083 -2.87105e-06C 1.48486 -2.87105e-06 7.03115e-07 1.48474 7.03115e-07 3.31567C 7.03115e-07 5.14661 1.48486 6.63651 3.32083 6.63651Z"/>
<path id="path3_fill" d="M 18.2844 3.36595L 13.1228 9.33023C 12.8168 9.70642 12.3553 9.93718 11.8337 9.93718C 10.9107 9.93718 10.1632 9.18983 10.1632 8.27184C 10.1632 7.77025 10.379 7.32374 10.725 7.01774L 16.2931 0.607074C 16.5991 0.24084 17.0606 0.00503964 17.5822 0.00503964L 25.6383 6.44522e-07C 26.2303 6.44522e-07 26.762 0.240833 27.1533 0.617028L 32.2898 5.75368L 36.5485 1.5049C 36.8496 1.24906 37.2359 1.09858 37.6572 1.09858C 38.6104 1.09858 39.3779 1.87113 39.3779 2.82416C 39.3779 3.24055 39.2373 3.61675 38.9916 3.91771L 33.8599 9.08939C 32.2999 10.6446 31.0459 9.32519 31.0459 9.32519L 27.8956 6.15999L 22.9747 11.8533L 27.4844 16.363C 27.4844 16.363 28.4374 17.2459 27.8905 19.0015L 25.3624 30.2729C 25.1618 31.2512 24.299 31.9885 23.2657 31.9885C 22.0768 31.9885 21.1187 31.0254 21.1187 29.8415C 21.1187 29.651 21.1388 29.4704 21.184 29.2999L 23.2657 20.055L 18.139 15.0738L 13.7298 19.9897C 13.7298 19.9897 13.0175 20.8676 11.1264 20.8023L 2.18248 20.8173C 1.18421 20.8325 0.276306 20.1502 0.055629 19.137C -0.210287 17.9832 0.502023 16.8496 1.66073 16.5937C 1.84132 16.5536 2.02192 16.5386 2.19748 16.5436L 9.88733 16.5636L 21.2592 3.38095L 18.2844 3.36595Z"/>
</defs>
</svg>
