<?xml version="1.0" encoding="utf-8"?>
<!-- Generator: Adobe Illustrator 15.1.0, SVG Export Plug-In  -->
<!DOCTYPE svg PUBLIC "-//W3C//DTD SVG 1.1//EN" "http://www.w3.org/Graphics/SVG/1.1/DTD/svg11.dtd" [
	<!ENTITY ns_flows "http://ns.adobe.com/Flows/1.0/">
]>
<svg version="1.1"
	 xmlns="http://www.w3.org/2000/svg" xmlns:xlink="http://www.w3.org/1999/xlink" xmlns:a="http://ns.adobe.com/AdobeSVGViewerExtensions/3.0/"
	 x="0px" y="0px" width="30px" height="30px" viewBox="-0.01 -6 30 30" enable-background="new -0.01 -6 30 30"
	 xml:space="preserve">
<defs>
	<symbol  id="sidebar_burger" viewBox="-14.995 -9.275 29.99 18.55">
		<path id="path57_stroke_15_" d="M4.695,9.275c0.552,0,1-0.448,1-1s-0.448-1-1-1V9.275z M-13.995,7.275c-0.551,0-1,0.448-1,1
			s0.449,1,1,1V7.275z M4.695,7.275h-18.69v2h18.69V7.275z"/>
		<path id="path57_stroke_14_" d="M4.695,0.995c0.552,0,1-0.447,1-1c0-0.552-0.448-1-1-1V0.995z M-13.995-1.005
			c-0.551,0-1,0.448-1,1c0,0.553,0.449,1,1,1V-1.005z M4.695-1.005h-18.69v2h18.69V-1.005z"/>
		<path id="path57_stroke_13_" d="M4.695-7.275c0.552,0,1-0.448,1-1c0-0.553-0.448-1-1-1V-7.275z M-13.995-9.275
			c-0.551,0-1,0.447-1,1c0,0.552,0.449,1,1,1V-9.275z M4.695-9.275h-18.69v2h18.69V-9.275z"/>
		<path id="path58_fill_5_" d="M14.995-0.485L8.788,5.205V-6.174L14.995-0.485z"/>
	</symbol>
</defs>
<use xlink:href="#sidebar_burger"  width="29.99" height="18.55" x="-14.995" y="-9.275" transform="matrix(-1 0 0 -1 14.9951 9.2749)" overflow="visible"/>
</svg>
